<svg>
    <!-- icons by Free Icons (https://free-icons.github.io/free-icons/) -->
    <symbol xmlns="http://www.w3.org/2000/svg" id="arrow-left" viewBox="0 0 16 16">
        <path fill-rule="evenodd" d="M12 8a.5.5 0 0 1-.5.5H5.707l2.147 2.146a.5.5 0 0 1-.708.708l-3-3a.5.5 0 0 1 0-.708l3-3a.5.5 0 1 1 .708.708L5.707 7.5H11.5a.5.5 0 0 1 .5.5"/>
    </symbol>
    <symbol xmlns="http://www.w3.org/2000/svg" xmlns:xlink="http://www.w3.org/1999/xlink" id="trash" viewBox="0 0 16 16">
        <path d="M11 1.5v1h3.5a.5.5 0 0 1 0 1h-.538l-.853 10.66A2 2 0 0 1 11.115 16h-6.23a2 2 0 0 1-1.994-1.84L2.038 3.5H1.5a.5.5 0 0 1 0-1H5v-1A1.5 1.5 0 0 1 6.5 0h3A1.5 1.5 0 0 1 11 1.5m-5 0v1h4v-1a.5.5 0 0 0-.5-.5h-3a.5.5 0 0 0-.5.5M4.5 5.029l.5 8.5a.5.5 0 1 0 .998-.06l-.5-8.5a.5.5 0 1 0-.998.06m6.53-.528a.5.5 0 0 0-.528.47l-.5 8.5a.5.5 0 0 0 .998.058l.5-8.5a.5.5 0 0 0-.47-.528M8 4.5a.5.5 0 0 0-.5.5v8.5a.5.5 0 0 0 1 0V5a.5.5 0 0 0-.5-.5"/>
    </symbol>
    <symbol xmlns="http://www.w3.org/2000/svg" xmlns:xlink="http://www.w3.org/1999/xlink" id="pencil" viewBox="0 0 16 16">
        <path d="M15.502 1.94a.5.5 0 0 1 0 .706L14.459 3.69l-2-2L13.502.646a.5.5 0 0 1 .707 0l1.293 1.293zm-1.75 2.456-2-2L4.939 9.21a.5.5 0 0 0-.121.196l-.805 2.414a.25.25 0 0 0 .316.316l2.414-.805a.5.5 0 0 0 .196-.12l6.813-6.814z"/>
        <path fill-rule="evenodd" d="M1 13.5A1.5 1.5 0 0 0 2.5 15h11a1.5 1.5 0 0 0 1.5-1.5v-6a.5.5 0 0 0-1 0v6a.5.5 0 0 1-.5.5h-11a.5.5 0 0 1-.5-.5v-11a.5.5 0 0 1 .5-.5H9a.5.5 0 0 0 0-1H2.5A1.5 1.5 0 0 0 1 2.5z"/>
    </symbol>
    <symbol xmlns="http://www.w3.org/2000/svg" id="list" viewBox="0 0 496 416">
        <path d="M 24 0 Q 2 2 0 24 L 0 72 L 0 72 Q 2 94 24 96 L 72 96 L 72 96 Q 94 94 96 72 L 96 24 L 96 24 Q 94 2 72 0 L 24 0 L 24 0 Z M 176 16 Q 162 16 153 25 L 153 25 L 153 25 Q 144 34 144 48 Q 144 62 153 71 Q 162 80 176 80 L 464 80 L 464 80 Q 478 80 487 71 Q 496 62 496 48 Q 496 34 487 25 Q 478 16 464 16 L 176 16 L 176 16 Z M 176 176 Q 162 176 153 185 L 153 185 L 153 185 Q 144 194 144 208 Q 144 222 153 231 Q 162 240 176 240 L 464 240 L 464 240 Q 478 240 487 231 Q 496 222 496 208 Q 496 194 487 185 Q 478 176 464 176 L 176 176 L 176 176 Z M 176 336 Q 162 336 153 345 L 153 345 L 153 345 Q 144 354 144 368 Q 144 382 153 391 Q 162 400 176 400 L 464 400 L 464 400 Q 478 400 487 391 Q 496 382 496 368 Q 496 354 487 345 Q 478 336 464 336 L 176 336 L 176 336 Z M 0 184 L 0 232 L 0 184 L 0 232 Q 2 254 24 256 L 72 256 L 72 256 Q 94 254 96 232 L 96 184 L 96 184 Q 94 162 72 160 L 24 160 L 24 160 Q 2 162 0 184 L 0 184 Z M 24 320 Q 2 322 0 344 L 0 392 L 0 392 Q 2 414 24 416 L 72 416 L 72 416 Q 94 414 96 392 L 96 344 L 96 344 Q 94 322 72 320 L 24 320 L 24 320 Z" />
    </symbol>
    <symbol xmlns="http://www.w3.org/2000/svg" id="visible" viewBox="0 0 512 512">
       <path d="M 255.5593803786575 58.602409638554214 Q 201.8037865748709 59.48364888123924 159.50430292598966 79.75215146299483 L 159.50430292598966 79.75215146299483 L 159.50430292598966 79.75215146299483 Q 117.20481927710843 100.02065404475043 85.4802065404475 129.98278829604132 Q 54.6368330464716 159.06368330464716 34.36833046471601 189.90705679862307 Q 14.099827882960414 220.75043029259896 4.406196213425129 245.42512908777968 Q 0 256 4.406196213425129 266.5748709122203 Q 14.099827882960414 291.249569707401 34.36833046471601 322.09294320137695 Q 54.6368330464716 352.93631669535284 85.4802065404475 382.0172117039587 Q 117.20481927710843 411.9793459552496 159.50430292598966 432.24784853700515 Q 201.8037865748709 452.5163511187608 255.5593803786575 453.3975903614458 Q 309.3149741824441 452.5163511187608 351.6144578313253 432.24784853700515 Q 393.9139414802065 411.9793459552496 425.6385542168675 382.0172117039587 Q 456.48192771084337 352.93631669535284 476.750430292599 322.09294320137695 Q 497.01893287435456 291.249569707401 507.5938037865749 266.5748709122203 Q 512 256 507.5938037865749 245.42512908777968 Q 497.01893287435456 220.75043029259896 476.750430292599 189.90705679862307 Q 456.48192771084337 159.06368330464716 425.6385542168675 129.98278829604132 Q 393.9139414802065 100.02065404475043 351.6144578313253 79.75215146299483 Q 309.3149741824441 59.48364888123924 255.5593803786575 58.602409638554214 L 255.5593803786575 58.602409638554214 Z M 128.66092943201377 256 Q 128.66092943201377 221.631669535284 145.40447504302927 192.55077452667814 L 145.40447504302927 192.55077452667814 L 145.40447504302927 192.55077452667814 Q 162.14802065404476 163.46987951807228 192.11015490533563 145.84509466437177 Q 222.0722891566265 129.10154905335628 255.5593803786575 129.10154905335628 Q 289.04647160068845 129.10154905335628 319.0086058519793 145.84509466437177 Q 348.9707401032702 163.46987951807228 365.7142857142857 192.55077452667814 Q 382.4578313253012 221.631669535284 382.4578313253012 256 Q 382.4578313253012 290.368330464716 365.7142857142857 319.44922547332186 Q 348.9707401032702 348.5301204819277 319.0086058519793 366.1549053356282 Q 289.04647160068845 382.8984509466437 255.5593803786575 382.8984509466437 Q 222.0722891566265 382.8984509466437 192.11015490533563 366.1549053356282 Q 162.14802065404476 348.5301204819277 145.40447504302927 319.44922547332186 Q 128.66092943201377 290.368330464716 128.66092943201377 256 L 128.66092943201377 256 Z M 255.5593803786575 199.60068846815835 Q 254.67814113597245 223.39414802065406 238.815834767642 239.2564543889845 L 238.815834767642 239.2564543889845 L 238.815834767642 239.2564543889845 Q 222.95352839931152 255.118760757315 199.16006884681585 256 Q 189.46643717728054 256 181.5352839931153 253.35628227194493 Q 172.72289156626505 251.59380378657488 170.960413080895 259.5249569707401 Q 170.960413080895 268.33734939759034 173.6041308089501 278.03098106712565 Q 184.1790017211704 312.39931153184165 213.25989672977624 329.14285714285717 Q 242.3407917383821 345.88640275387263 277.5903614457831 337.9552495697074 Q 311.9586919104991 327.3803786574871 328.70223752151463 298.2994836488812 Q 345.4457831325301 269.2185886402754 337.51462994836487 233.96901893287435 Q 329.58347676419965 206.65060240963857 308.43373493975906 189.90705679862307 Q 286.4027538726334 173.16351118760758 259.0843373493976 171.40103270223753 Q 251.15318416523235 173.16351118760758 252.9156626506024 181.97590361445782 Q 255.5593803786575 189.90705679862307 255.5593803786575 199.60068846815835 L 255.5593803786575 199.60068846815835 Z" />
    </symbol>
    <symbol xmlns="http://www.w3.org/2000/svg" id="notvisible" viewBox="0 0 512 512">
        <path d="M 36.01223241590214 59.49847094801223 Q 21.137614678899084 50.103975535168196 9.394495412844037 62.62996941896024 Q 0 77.5045871559633 12.525993883792049 89.24770642201835 L 475.98776758409787 452.50152905198775 L 475.98776758409787 452.50152905198775 Q 490.86238532110093 461.8960244648318 502.60550458715596 449.37003058103977 Q 512 434.4954128440367 499.47400611620793 422.7522935779817 L 417.27217125382265 358.5565749235474 L 417.27217125382265 358.5565749235474 Q 439.97553516819573 334.28746177370033 455.6330275229358 309.2354740061162 Q 471.2905198776758 284.9663608562691 479.9021406727829 265.39449541284404 Q 483.0336391437309 256 479.9021406727829 246.60550458715596 Q 470.50764525993884 224.68501529051989 452.50152905198775 197.28440366972478 Q 434.4954128440367 169.88379204892968 407.0948012232416 144.04892966360856 Q 378.91131498470946 117.43119266055047 341.3333333333333 99.42507645259938 Q 303.75535168195717 81.41896024464832 256 80.63608562691131 Q 216.07339449541286 81.41896024464832 182.40978593272172 93.94495412844037 Q 149.5290519877676 107.25382262996942 123.69418960244649 128.3914373088685 L 36.01223241590214 59.49847094801223 L 36.01223241590214 59.49847094801223 Z M 180.0611620795107 173.01529051987768 Q 211.37614678899084 144.04892966360856 256 143.26605504587155 Q 303.75535168195717 144.83180428134557 335.8532110091743 176.14678899082568 Q 367.16819571865443 208.2446483180428 368.73394495412845 256 Q 368.73394495412845 285.7492354740061 355.4250764525994 310.0183486238532 L 324.8929663608563 286.5321100917431 L 324.8929663608563 286.5321100917431 Q 335.0703363914373 263.04587155963304 328.8073394495413 236.42813455657492 Q 321.76146788990826 212.15902140672782 302.9724770642202 197.28440366972478 Q 283.40061162079513 182.40978593272172 259.13149847094803 180.8440366972477 Q 252.085626911315 182.40978593272172 253.651376146789 190.23853211009174 Q 256 197.28440366972478 256 205.8960244648318 Q 256 218.42201834862385 250.51987767584097 227.8165137614679 L 180.0611620795107 173.01529051987768 L 180.0611620795107 173.01529051987768 Z M 297.49235474006116 360.9051987767584 Q 277.9204892966361 368.73394495412845 256 368.73394495412845 Q 208.2446483180428 367.16819571865443 176.14678899082568 335.8532110091743 Q 144.83180428134557 303.75535168195717 143.26605504587155 256 Q 143.26605504587155 248.17125382262998 144.04892966360856 240.34250764525993 L 70.45871559633028 182.40978593272172 L 70.45871559633028 182.40978593272172 Q 43.84097859327217 218.42201834862385 32.88073394495413 246.60550458715596 Q 28.966360856269112 256 32.88073394495413 265.39449541284404 Q 41.49235474006116 287.31498470948014 59.49847094801223 314.7155963302752 Q 77.5045871559633 342.11620795107035 105.68807339449542 367.9510703363914 Q 133.0886850152905 394.56880733944956 170.66666666666666 412.5749235474006 Q 208.2446483180428 430.5810397553517 256 431.3639143730887 Q 312.3669724770642 429.79816513761466 354.64220183486236 406.3119266055046 L 297.49235474006116 360.9051987767584 L 297.49235474006116 360.9051987767584 Z" />
    </symbol>
    <symbol xmlns="http://www.w3.org/2000/svg" xmlns:xlink="http://www.w3.org/1999/xlink" id="plus2" viewBox="0 0 512 512">
        <path
            d="M 256 512 Q 326 511 384 478 L 384 478 L 384 478 Q 442 444 478 384 Q 512 323 512 256 Q 512 189 478 128 Q 442 68 384 34 Q 326 1 256 0 Q 186 1 128 34 Q 70 68 34 128 Q 0 189 0 256 Q 0 323 34 384 Q 70 444 128 478 Q 186 511 256 512 L 256 512 Z M 232 344 L 232 280 L 232 344 L 232 280 L 168 280 L 168 280 Q 146 278 144 256 Q 146 234 168 232 L 232 232 L 232 232 L 232 168 L 232 168 Q 234 146 256 144 Q 278 146 280 168 L 280 232 L 280 232 L 344 232 L 344 232 Q 366 234 368 256 Q 366 278 344 280 L 280 280 L 280 280 L 280 344 L 280 344 Q 278 366 256 368 Q 234 366 232 344 L 232 344 Z"
        />
    </symbol>
     <symbol xmlns="http://www.w3.org/2000/svg" viewBox="0 0 512 512" id="download">
        <path d="M 288 32 Q 288 18 279 9 L 279 9 L 279 9 Q 270 0 256 0 Q 242 0 233 9 Q 224 18 224 32 L 224 275 L 224 275 L 151 201 L 151 201 Q 141 192 128 192 Q 115 192 105 201 Q 96 211 96 224 Q 96 237 105 247 L 233 375 L 233 375 Q 243 384 256 384 Q 269 384 279 375 L 407 247 L 407 247 Q 416 237 416 224 Q 416 211 407 201 Q 397 192 384 192 Q 371 192 361 201 L 288 275 L 288 275 L 288 32 L 288 32 Z M 64 352 Q 37 353 19 371 L 19 371 L 19 371 Q 1 389 0 416 L 0 448 L 0 448 Q 1 475 19 493 Q 37 511 64 512 L 448 512 L 448 512 Q 475 511 493 493 Q 511 475 512 448 L 512 416 L 512 416 Q 511 389 493 371 Q 475 353 448 352 L 347 352 L 347 352 L 301 397 L 301 397 Q 281 416 256 416 Q 230 416 211 397 L 166 352 L 166 352 L 64 352 L 64 352 Z M 432 408 Q 454 410 456 432 Q 454 454 432 456 Q 410 454 408 432 Q 410 410 432 408 L 432 408 Z" />
    </symbol>
</svg>